<svg xmlns="http://www.w3.org/2000/svg" xmlns:xlink="http://www.w3.org/1999/xlink" version="1.2" width="210.00mm" height="297.00mm" viewBox="0.0000 -0.0000 119.5016 169.0094">
<style type="text/css">
<![CDATA[
tspan { white-space: pre; }
]]>
</style>
<g transform="translate(8.5358, 7.8953)">
<line stroke-linejoin="round" stroke-linecap="round" stroke-width="0.1000" stroke="currentColor" x1="0.0500" y1="0" x2="88.9505" y2="0"/>
</g>
<g transform="translate(8.5358, 6.8953)">
<line stroke-linejoin="round" stroke-linecap="round" stroke-width="0.1000" stroke="currentColor" x1="0.0500" y1="0" x2="88.9505" y2="0"/>
</g>
<g transform="translate(8.5358, 5.8953)">
<line stroke-linejoin="round" stroke-linecap="round" stroke-width="0.1000" stroke="currentColor" x1="0.0500" y1="0" x2="88.9505" y2="0"/>
</g>
<g transform="translate(8.5358, 4.8953)">
<line stroke-linejoin="round" stroke-linecap="round" stroke-width="0.1000" stroke="currentColor" x1="0.0500" y1="0" x2="88.9505" y2="0"/>
</g>
<g transform="translate(8.5358, 3.8953)">
<line stroke-linejoin="round" stroke-linecap="round" stroke-width="0.1000" stroke="currentColor" x1="0.0500" y1="0" x2="88.9505" y2="0"/>
</g>
<g transform="translate(8.5358, 16.8953)">
<line stroke-linejoin="round" stroke-linecap="round" stroke-width="0.1000" stroke="currentColor" x1="0.0500" y1="0" x2="88.9505" y2="0"/>
</g>
<g transform="translate(8.5358, 15.8953)">
<line stroke-linejoin="round" stroke-linecap="round" stroke-width="0.1000" stroke="currentColor" x1="0.0500" y1="0" x2="88.9505" y2="0"/>
</g>
<g transform="translate(8.5358, 14.8953)">
<line stroke-linejoin="round" stroke-linecap="round" stroke-width="0.1000" stroke="currentColor" x1="0.0500" y1="0" x2="88.9505" y2="0"/>
</g>
<g transform="translate(8.5358, 13.8953)">
<line stroke-linejoin="round" stroke-linecap="round" stroke-width="0.1000" stroke="currentColor" x1="0.0500" y1="0" x2="88.9505" y2="0"/>
</g>
<g transform="translate(8.5358, 12.8953)">
<line stroke-linejoin="round" stroke-linecap="round" stroke-width="0.1000" stroke="currentColor" x1="0.0500" y1="0" x2="88.9505" y2="0"/>
</g>
<g transform="translate(8.5358, 8.8953)">
<rect x="49.8253" y="-0.1000" width="2.6275" height="0.2000" ry="0.1000" fill="currentColor"/>
</g>
<g transform="translate(8.5358, 8.8953)">
<rect x="41.2097" y="-0.1000" width="2.9430" height="0.2000" ry="0.1000" fill="currentColor"/>
</g>
<g transform="translate(8.5358, 9.8953)">
<rect x="41.5252" y="-0.1000" width="2.6275" height="0.2000" ry="0.1000" fill="currentColor"/>
</g>
<g transform="translate(8.5358, 8.8953)">
<rect x="8.1595" y="-0.1000" width="2.9430" height="0.2000" ry="0.1000" fill="currentColor"/>
</g>
<g transform="translate(8.5358, 8.8953)">
<rect x="0.0095" y="-0.1000" width="2.9430" height="0.2000" ry="0.1000" fill="currentColor"/>
</g>
<g transform="translate(8.5358, 9.8953)">
<rect x="0.3250" y="-0.1000" width="2.6275" height="0.2000" ry="0.1000" fill="currentColor"/>
</g>
<a style="color:inherit;" xlink:href="textedit:///Volumes/seb/Documents/Projects/1Active/singing_hollow/get_loudest_frequencies/notes.ly:49:16:17">
<g transform="translate(25.3359, 7.8953)">
<path transform="scale(0.0040, -0.0040)" d="M213 112c-45 0 -69 -34 -69 -88c0 -102 89 -136 134 -136s69 34 69 88c0 102 -89 136 -134 136zM245 136c144 0 246 -65 246 -136s-102 -136 -246 -136s-245 65 -245 136s101 136 245 136z" fill="currentColor"/>
</g>
</a>
<a style="color:inherit;" xlink:href="textedit:///Volumes/seb/Documents/Projects/1Active/singing_hollow/get_loudest_frequencies/notes.ly:49:19:20">
<g transform="translate(33.6360, 6.8953)">
<path transform="scale(0.0040, -0.0040)" d="M213 112c-45 0 -69 -34 -69 -88c0 -102 89 -136 134 -136s69 34 69 88c0 102 -89 136 -134 136zM245 136c144 0 246 -65 246 -136s-102 -136 -246 -136s-245 65 -245 136s101 136 245 136z" fill="currentColor"/>
</g>
</a>
<g transform="translate(32.1860, 6.8953)">
<path transform="scale(0.0040, -0.0040)" d="M0 119c0 8 5 15 13 18l46 17v158c0 10 8 19 18 19s19 -9 19 -19v-145l83 31v158c0 10 9 19 19 19s18 -9 18 -19v-145l32 12c2 1 5 1 7 1c11 0 20 -9 20 -20v-60c0 -8 -5 -16 -13 -19l-46 -16v-160l32 11c2 1 5 1 7 1c11 0 20 -9 20 -20v-60c0 -8 -5 -15 -13 -18l-46 -17
v-158c0 -10 -8 -19 -18 -19s-19 9 -19 19v145l-83 -31v-158c0 -10 -9 -19 -19 -19s-18 9 -18 19v145l-32 -12c-2 -1 -5 -1 -7 -1c-11 0 -20 9 -20 20v60c0 8 5 16 13 19l46 16v160l-32 -11c-2 -1 -5 -1 -7 -1c-11 0 -20 9 -20 20v60zM179 95l-83 -30v-160l83 30v160z" fill="currentColor"/>
</g>
<a style="color:inherit;" xlink:href="textedit:///Volumes/seb/Documents/Projects/1Active/singing_hollow/get_loudest_frequencies/notes.ly:49:24:25">
<g transform="translate(41.9360, 8.3953)">
<path transform="scale(0.0040, -0.0040)" d="M213 112c-45 0 -69 -34 -69 -88c0 -102 89 -136 134 -136s69 34 69 88c0 102 -89 136 -134 136zM245 136c144 0 246 -65 246 -136s-102 -136 -246 -136s-245 65 -245 136s101 136 245 136z" fill="currentColor"/>
</g>
</a>
<g transform="translate(40.4860, 8.3953)">
<path transform="scale(0.0040, -0.0040)" d="M0 119c0 8 5 15 13 18l46 17v158c0 10 8 19 18 19s19 -9 19 -19v-145l83 31v158c0 10 9 19 19 19s18 -9 18 -19v-145l32 12c2 1 5 1 7 1c11 0 20 -9 20 -20v-60c0 -8 -5 -16 -13 -19l-46 -16v-160l32 11c2 1 5 1 7 1c11 0 20 -9 20 -20v-60c0 -8 -5 -15 -13 -18l-46 -17
v-158c0 -10 -8 -19 -18 -19s-19 9 -19 19v145l-83 -31v-158c0 -10 -9 -19 -19 -19s-18 9 -18 19v145l-32 -12c-2 -1 -5 -1 -7 -1c-11 0 -20 9 -20 20v60c0 8 5 16 13 19l46 16v160l-32 -11c-2 -1 -5 -1 -7 -1c-11 0 -20 9 -20 20v60zM179 95l-83 -30v-160l83 30v160z" fill="currentColor"/>
</g>
<a style="color:inherit;" xlink:href="textedit:///Volumes/seb/Documents/Projects/1Active/singing_hollow/get_loudest_frequencies/notes.ly:49:29:30">
<g transform="translate(50.2361, 9.8953)">
<path transform="scale(0.0040, -0.0040)" d="M213 112c-45 0 -69 -34 -69 -88c0 -102 89 -136 134 -136s69 34 69 88c0 102 -89 136 -134 136zM245 136c144 0 246 -65 246 -136s-102 -136 -246 -136s-245 65 -245 136s101 136 245 136z" fill="currentColor"/>
</g>
</a>
<g transform="translate(48.7861, 9.8953)">
<path transform="scale(0.0040, -0.0040)" d="M0 119c0 8 5 15 13 18l46 17v158c0 10 8 19 18 19s19 -9 19 -19v-145l83 31v158c0 10 9 19 19 19s18 -9 18 -19v-145l32 12c2 1 5 1 7 1c11 0 20 -9 20 -20v-60c0 -8 -5 -16 -13 -19l-46 -16v-160l32 11c2 1 5 1 7 1c11 0 20 -9 20 -20v-60c0 -8 -5 -15 -13 -18l-46 -17
v-158c0 -10 -8 -19 -18 -19s-19 9 -19 19v145l-83 -31v-158c0 -10 -9 -19 -19 -19s-18 9 -18 19v145l-32 -12c-2 -1 -5 -1 -7 -1c-11 0 -20 9 -20 20v60c0 8 5 16 13 19l46 16v160l-32 -11c-2 -1 -5 -1 -7 -1c-11 0 -20 9 -20 20v60zM179 95l-83 -30v-160l83 30v160z" fill="currentColor"/>
</g>
<g transform="translate(8.1758, 10.3953)">
<path transform="scale(0.0040, -0.0040)" d="M-81 -366c0 255 -132 363 -132 366c0 18 132 96 132 366c0 261 -108 489 -108 780c0 189 45 366 177 501c15 15 39 -9 24 -24c-99 -99 -129 -225 -129 -360c0 -255 102 -480 102 -765c0 -186 -45 -363 -174 -498c129 -135 174 -312 174 -498c0 -285 -102 -510 -102 -765
c0 -135 30 -261 129 -360c15 -15 -9 -39 -24 -24c-132 135 -177 312 -177 501c0 291 108 519 108 780z" fill="currentColor"/>
</g>
<a style="color:inherit;" xlink:href="textedit:///Volumes/seb/Documents/Projects/1Active/singing_hollow/get_loudest_frequencies/notes.ly:49:34:35">
<g transform="translate(58.5361, 8.8953)">
<path transform="scale(0.0040, -0.0040)" d="M213 112c-45 0 -69 -34 -69 -88c0 -102 89 -136 134 -136s69 34 69 88c0 102 -89 136 -134 136zM245 136c144 0 246 -65 246 -136s-102 -136 -246 -136s-245 65 -245 136s101 136 245 136z" fill="currentColor"/>
</g>
</a>
<a style="color:inherit;" xlink:href="textedit:///Volumes/seb/Documents/Projects/1Active/singing_hollow/get_loudest_frequencies/notes.ly:49:13:14">
<g transform="translate(17.1859, 8.8953)">
<path transform="scale(0.0040, -0.0040)" d="M213 112c-45 0 -69 -34 -69 -88c0 -102 89 -136 134 -136s69 34 69 88c0 102 -89 136 -134 136zM245 136c144 0 246 -65 246 -136s-102 -136 -246 -136s-245 65 -245 136s101 136 245 136z" fill="currentColor"/>
</g>
</a>
<g transform="translate(57.0861, 8.8953)">
<path transform="scale(0.0040, -0.0040)" d="M0 119c0 8 5 15 13 18l46 17v158c0 10 8 19 18 19s19 -9 19 -19v-145l83 31v158c0 10 9 19 19 19s18 -9 18 -19v-145l32 12c2 1 5 1 7 1c11 0 20 -9 20 -20v-60c0 -8 -5 -16 -13 -19l-46 -16v-160l32 11c2 1 5 1 7 1c11 0 20 -9 20 -20v-60c0 -8 -5 -15 -13 -18l-46 -17
v-158c0 -10 -8 -19 -18 -19s-19 9 -19 19v145l-83 -31v-158c0 -10 -9 -19 -19 -19s-18 9 -18 19v145l-32 -12c-2 -1 -5 -1 -7 -1c-11 0 -20 9 -20 20v60c0 8 5 16 13 19l46 16v160l-32 -11c-2 -1 -5 -1 -7 -1c-11 0 -20 9 -20 20v60zM179 95l-83 -30v-160l83 30v160z" fill="currentColor"/>
</g>
<a style="color:inherit;" xlink:href="textedit:///Volumes/seb/Documents/Projects/1Active/singing_hollow/get_loudest_frequencies/notes.ly:49:39:40">
<g transform="translate(66.8362, 7.3953)">
<path transform="scale(0.0040, -0.0040)" d="M213 112c-45 0 -69 -34 -69 -88c0 -102 89 -136 134 -136s69 34 69 88c0 102 -89 136 -134 136zM245 136c144 0 246 -65 246 -136s-102 -136 -246 -136s-245 65 -245 136s101 136 245 136z" fill="currentColor"/>
</g>
</a>
<g transform="translate(7.5858, 10.3953)">
<path transform="scale(0.0040, -0.0040)" d="M0 119c0 8 5 15 13 18l46 17v158c0 10 8 19 18 19s19 -9 19 -19v-145l83 31v158c0 10 9 19 19 19s18 -9 18 -19v-145l32 12c2 1 5 1 7 1c11 0 20 -9 20 -20v-60c0 -8 -5 -16 -13 -19l-46 -16v-160l32 11c2 1 5 1 7 1c11 0 20 -9 20 -20v-60c0 -8 -5 -15 -13 -18l-46 -17
v-158c0 -10 -8 -19 -18 -19s-19 9 -19 19v145l-83 -31v-158c0 -10 -9 -19 -19 -19s-18 9 -18 19v145l-32 -12c-2 -1 -5 -1 -7 -1c-11 0 -20 9 -20 20v60c0 8 5 16 13 19l46 16v160l-32 -11c-2 -1 -5 -1 -7 -1c-11 0 -20 9 -20 20v60zM179 95l-83 -30v-160l83 30v160z" fill="currentColor"/>
</g>
<g transform="translate(65.3862, 7.3953)">
<path transform="scale(0.0040, -0.0040)" d="M0 119c0 8 5 15 13 18l46 17v158c0 10 8 19 18 19s19 -9 19 -19v-145l83 31v158c0 10 9 19 19 19s18 -9 18 -19v-145l32 12c2 1 5 1 7 1c11 0 20 -9 20 -20v-60c0 -8 -5 -16 -13 -19l-46 -16v-160l32 11c2 1 5 1 7 1c11 0 20 -9 20 -20v-60c0 -8 -5 -15 -13 -18l-46 -17
v-158c0 -10 -8 -19 -18 -19s-19 9 -19 19v145l-83 -31v-158c0 -10 -9 -19 -19 -19s-18 9 -18 19v145l-32 -12c-2 -1 -5 -1 -7 -1c-11 0 -20 9 -20 20v60c0 8 5 16 13 19l46 16v160l-32 -11c-2 -1 -5 -1 -7 -1c-11 0 -20 9 -20 20v60zM179 95l-83 -30v-160l83 30v160z" fill="currentColor"/>
</g>
<g transform="translate(8.4758, 10.3953)">
<rect x="0.0000" y="-6.5500" width="0.1600" height="13.1000" ry="0.0500" fill="currentColor"/>
</g>
<a style="color:inherit;" xlink:href="textedit:///Volumes/seb/Documents/Projects/1Active/singing_hollow/get_loudest_frequencies/notes.ly:49:44:45">
<g transform="translate(74.9862, 5.8953)">
<path transform="scale(0.0040, -0.0040)" d="M213 112c-45 0 -69 -34 -69 -88c0 -102 89 -136 134 -136s69 34 69 88c0 102 -89 136 -134 136zM245 136c144 0 246 -65 246 -136s-102 -136 -246 -136s-245 65 -245 136s101 136 245 136z" fill="currentColor"/>
</g>
</a>
<a style="color:inherit;" xlink:href="textedit:///Volumes/seb/Documents/Projects/1Active/singing_hollow/get_loudest_frequencies/notes.ly:49:47:48">
<g transform="translate(83.1362, 6.8953)">
<path transform="scale(0.0040, -0.0040)" d="M213 112c-45 0 -69 -34 -69 -88c0 -102 89 -136 134 -136s69 34 69 88c0 102 -89 136 -134 136zM245 136c144 0 246 -65 246 -136s-102 -136 -246 -136s-245 65 -245 136s101 136 245 136z" fill="currentColor"/>
</g>
</a>
<a style="color:inherit;" xlink:href="textedit:///Volumes/seb/Documents/Projects/1Active/singing_hollow/get_loudest_frequencies/notes.ly:49:8:9">
<g transform="translate(9.0358, 10.3953)">
<path transform="scale(0.0040, -0.0040)" d="M213 112c-45 0 -69 -34 -69 -88c0 -102 89 -136 134 -136s69 34 69 88c0 102 -89 136 -134 136zM245 136c144 0 246 -65 246 -136s-102 -136 -246 -136s-245 65 -245 136s101 136 245 136z" fill="currentColor"/>
</g>
</a>
<a style="color:inherit;" xlink:href="textedit:///Volumes/seb/Documents/Projects/1Active/singing_hollow/get_loudest_frequencies/notes.ly:49:50:51">
<g transform="translate(91.2863, 7.3953)">
<path transform="scale(0.0040, -0.0040)" d="M213 112c-45 0 -69 -34 -69 -88c0 -102 89 -136 134 -136s69 34 69 88c0 102 -89 136 -134 136zM245 136c144 0 246 -65 246 -136s-102 -136 -246 -136s-245 65 -245 136s101 136 245 136z" fill="currentColor"/>
</g>
</a>
<g transform="translate(31.7362, 160.0203)">
<a xlink:href="https://lilypond.org/">
<rect x="0.0000" y="-0.4532" width="56.0292" height="2.0746" fill="none" stroke="none" stroke-width="0.0"/>
</a>
</g>
<g transform="translate(31.7362, 160.0203)">
<text font-family="serif" font-size="2.2000" text-anchor="start" fill="currentColor">
<tspan>Music engraving by LilyPond 2.24.4—www.lilypond.org</tspan>
</text>
</g>
</svg>
